<?xml version="1.0" encoding="UTF-8" standalone="no"?>
<!DOCTYPE svg PUBLIC "-//W3C//DTD SVG 1.1//EN"
 "http://www.w3.org/Graphics/SVG/1.1/DTD/svg11.dtd">
<!-- Generated by graphviz version 2.38.0 (20140413.2041)
 -->
<!-- Title: G Pages: 1 -->
<svg width="3980pt" height="708pt"
 viewBox="0.00 0.00 3980.00 708.20" xmlns="http://www.w3.org/2000/svg" xmlns:xlink="http://www.w3.org/1999/xlink">
<g id="graph0" class="graph" transform="scale(1 1) rotate(0) translate(4 704.2)">
<title>G</title>
<polygon fill="white" stroke="none" points="-4,4 -4,-704.2 3976,-704.2 3976,4 -4,4"/>
<g id="clust1" class="cluster"><title>cluster_0</title>
<polygon fill="lightgray" stroke="lightgrey" points="788,-497.6 788,-692.2 1621,-692.2 1621,-497.6 788,-497.6"/>
<text text-anchor="middle" x="1204.63" y="-661.2" font-family="Times,serif" font-size="30.00">C:/Users/Fluk3/CodeProject/ServerProject/user&#45;auth&#45;server/index.js</text>
</g>
<g id="clust2" class="cluster"><title>cluster_1</title>
<polygon fill="lightgray" stroke="lightgrey" points="8,-66.6 8,-456 889,-456 889,-66.6 8,-66.6"/>
<text text-anchor="middle" x="448.792" y="-425" font-family="Times,serif" font-size="30.00">C:/Users/Fluk3/CodeProject/ServerProject/user&#45;auth&#45;server/config/db.js</text>
</g>
<g id="clust3" class="cluster"><title>cluster_2</title>
<polygon fill="lightgray" stroke="lightgrey" points="2089,-8 2089,-278.2 3057,-278.2 3057,-8 2089,-8"/>
<text text-anchor="middle" x="2573.1" y="-247.2" font-family="Times,serif" font-size="30.00">C:/Users/Fluk3/CodeProject/ServerProject/user&#45;auth&#45;server/middleware/auth.js</text>
</g>
<g id="clust4" class="cluster"><title>cluster_3</title>
<polygon fill="lightgray" stroke="lightgrey" points="897,-66.6 897,-489.6 2081,-489.6 2081,-66.6 897,-66.6"/>
<text text-anchor="middle" x="1346.11" y="-458.6" font-family="Times,serif" font-size="30.00">C:/Users/Fluk3/CodeProject/ServerProject/user&#45;auth&#45;server/routes/user.js</text>
</g>
<g id="clust5" class="cluster"><title>cluster_4</title>
<polygon fill="lightgray" stroke="lightgrey" points="3065,-130 3065,-265.4 3964,-265.4 3964,-130 3065,-130"/>
<text text-anchor="middle" x="3514.95" y="-234.4" font-family="Times,serif" font-size="30.00">C:/Users/Fluk3/CodeProject/ServerProject/user&#45;auth&#45;server/model/user.js</text>
</g>
<!-- 0 -->
<g id="node1" class="node"><title>0</title>
<polygon fill="lightyellow" stroke="black" points="1241.29,-506.1 1241.29,-639.7 1502.71,-639.7 1502.71,-506.1 1241.29,-506.1"/>
<text text-anchor="middle" x="1372" y="-623.1" font-family="Times,serif" font-size="14.00">«GLOBAL»</text>
<polyline fill="none" stroke="black" points="1241.29,-614.9 1502.71,-614.9 "/>
<text text-anchor="start" x="1249.29" y="-598.3" font-family="Times,serif" font-size="14.00">&#45;InitiateMongoServer : variable = .configdb</text>
<text text-anchor="start" x="1249.29" y="-581.5" font-family="Times,serif" font-size="14.00">&#45;PORT : variable</text>
<text text-anchor="start" x="1249.29" y="-564.7" font-family="Times,serif" font-size="14.00">&#45;app : variable</text>
<text text-anchor="start" x="1249.29" y="-547.9" font-family="Times,serif" font-size="14.00">&#45;bodyParser : variable = body&#45;parser</text>
<text text-anchor="start" x="1249.29" y="-531.1" font-family="Times,serif" font-size="14.00">&#45;express : variable = express</text>
<text text-anchor="start" x="1249.29" y="-514.3" font-family="Times,serif" font-size="14.00">&#45;user : variable = .routesuser</text>
</g>
<!-- 1 -->
<g id="node3" class="node"><title>1</title>
<polygon fill="lightyellow" stroke="black" points="674.684,-320.3 674.684,-403.5 881.316,-403.5 881.316,-320.3 674.684,-320.3"/>
<text text-anchor="middle" x="778" y="-386.9" font-family="Times,serif" font-size="14.00">«GLOBAL»</text>
<polyline fill="none" stroke="black" points="674.684,-378.7 881.316,-378.7 "/>
<text text-anchor="start" x="682.684" y="-362.1" font-family="Times,serif" font-size="14.00">&#45;InitiateMongoServer : variable</text>
<text text-anchor="start" x="682.684" y="-345.3" font-family="Times,serif" font-size="14.00">&#45;URL : object</text>
<text text-anchor="start" x="682.684" y="-328.5" font-family="Times,serif" font-size="14.00">&#45;mongoose : variable = mongoose</text>
</g>
<!-- 0&#45;&gt;1 -->
<g id="edge2" class="edge"><title>0&#45;&gt;1</title>
<path fill="none" stroke="black" d="M1129,-497.6C1103.45,-493.332 919.572,-500.343 896,-489.6 881.287,-482.895 867.547,-473.413 855.021,-462.618"/>
<polygon fill="black" stroke="black" points="857.155,-459.83 847.381,-455.74 852.472,-465.032 857.155,-459.83"/>
</g>
<!-- 3 -->
<g id="node13" class="node"><title>3</title>
<polygon fill="lightyellow" stroke="black" points="1860.59,-295.1 1860.59,-428.7 2073.41,-428.7 2073.41,-295.1 1860.59,-295.1"/>
<text text-anchor="middle" x="1967" y="-412.1" font-family="Times,serif" font-size="14.00">«GLOBAL»</text>
<polyline fill="none" stroke="black" points="1860.59,-403.9 2073.41,-403.9 "/>
<text text-anchor="start" x="1868.59" y="-387.3" font-family="Times,serif" font-size="14.00">&#45;User : variable = ..modeluser</text>
<text text-anchor="start" x="1868.59" y="-370.5" font-family="Times,serif" font-size="14.00">&#45;auth : variable = ..middlewareauth</text>
<text text-anchor="start" x="1868.59" y="-353.7" font-family="Times,serif" font-size="14.00">&#45;bcrypt : variable = bcryptjs</text>
<text text-anchor="start" x="1868.59" y="-336.9" font-family="Times,serif" font-size="14.00">&#45;express : variable = express</text>
<text text-anchor="start" x="1868.59" y="-320.1" font-family="Times,serif" font-size="14.00">&#45;jwt : variable = jsonwebtoken</text>
<text text-anchor="start" x="1868.59" y="-303.3" font-family="Times,serif" font-size="14.00">&#45;router : variable</text>
</g>
<!-- 0&#45;&gt;3 -->
<g id="edge1" class="edge"><title>0&#45;&gt;3</title>
<path fill="none" stroke="black" d="M1620.55,-545.26C1711.07,-532.567 1802.34,-515.461 1847.95,-494.211"/>
<polygon fill="black" stroke="black" points="1849.68,-497.259 1857,-489.6 1846.5,-491.022 1849.68,-497.259"/>
</g>
<!-- 5 -->
<g id="node2" class="node"><title>5</title>
<polygon fill="lightblue" stroke="black" points="1014.96,-552.1 1014.96,-593.7 1125.04,-593.7 1125.04,-552.1 1014.96,-552.1"/>
<text text-anchor="middle" x="1070" y="-577.1" font-family="Times,serif" font-size="14.00">«FUNCTION»</text>
<text text-anchor="middle" x="1070" y="-560.3" font-family="Times,serif" font-size="14.00"> function</text>
</g>
<!-- 6 -->
<g id="node4" class="node"><title>6</title>
<polygon fill="lightblue" stroke="black" points="189.836,-328.7 189.836,-395.1 494.164,-395.1 494.164,-328.7 189.836,-328.7"/>
<text text-anchor="middle" x="342" y="-378.5" font-family="Times,serif" font-size="14.00">«FUNCTION»</text>
<text text-anchor="middle" x="342" y="-361.7" font-family="Times,serif" font-size="14.00"> function</text>
<polyline fill="none" stroke="black" points="189.836,-353.5 494.164,-353.5 "/>
<text text-anchor="start" x="197.836" y="-336.9" font-family="Times,serif" font-size="14.00">+module.exports : identifier = InitiateMongoServer</text>
</g>
<!-- 7 -->
<g id="node5" class="node"><title>7</title>
<polygon fill="khaki" stroke="black" points="251.62,-154.9 251.62,-196.5 338.38,-196.5 338.38,-154.9 251.62,-154.9"/>
<text text-anchor="middle" x="295" y="-179.9" font-family="Times,serif" font-size="14.00">«BLOCK»</text>
<text text-anchor="middle" x="295" y="-163.1" font-family="Times,serif" font-size="14.00"> Identifier</text>
</g>
<!-- 6&#45;&gt;7 -->
<g id="edge3" class="edge"><title>6&#45;&gt;7</title>
<path fill="none" stroke="black" d="M330.695,-316.595C320.967,-278.468 307.381,-225.223 300.096,-196.671"/>
<polygon fill="black" stroke="black" points="330.739,-316.765 336.098,-321.59 333.706,-328.393 328.346,-323.568 330.739,-316.765"/>
</g>
<!-- 8 -->
<g id="node6" class="node"><title>8</title>
<polygon fill="khaki" stroke="black" points="345.62,-154.9 345.62,-196.5 432.38,-196.5 432.38,-154.9 345.62,-154.9"/>
<text text-anchor="middle" x="389" y="-179.9" font-family="Times,serif" font-size="14.00">«CATCH»</text>
<text text-anchor="middle" x="389" y="-163.1" font-family="Times,serif" font-size="14.00"> catch</text>
</g>
<!-- 6&#45;&gt;8 -->
<g id="edge4" class="edge"><title>6&#45;&gt;8</title>
<path fill="none" stroke="black" d="M353.305,-316.595C363.033,-278.468 376.619,-225.223 383.904,-196.671"/>
<polygon fill="black" stroke="black" points="353.261,-316.765 355.654,-323.568 350.294,-328.393 347.902,-321.59 353.261,-316.765"/>
</g>
<!-- 9 -->
<g id="node7" class="node"><title>9</title>
<polygon fill="khaki" stroke="black" points="336.48,-75.1 336.48,-116.7 441.52,-116.7 441.52,-75.1 336.48,-75.1"/>
<text text-anchor="middle" x="389" y="-100.1" font-family="Times,serif" font-size="14.00">«BLOCK»</text>
<text text-anchor="middle" x="389" y="-83.3" font-family="Times,serif" font-size="14.00"> CallExpression</text>
</g>
<!-- 8&#45;&gt;9 -->
<g id="edge5" class="edge"><title>8&#45;&gt;9</title>
<path fill="none" stroke="black" d="M389,-142.483C389,-133.803 389,-124.664 389,-116.868"/>
<polygon fill="black" stroke="black" points="389,-142.665 393,-148.665 389,-154.665 385,-148.665 389,-142.665"/>
</g>
<!-- 2 -->
<g id="node8" class="node"><title>2</title>
<polygon fill="lightyellow" stroke="black" points="2273.3,-142.5 2273.3,-208.9 2568.7,-208.9 2568.7,-142.5 2273.3,-142.5"/>
<text text-anchor="middle" x="2421" y="-192.3" font-family="Times,serif" font-size="14.00">«GLOBAL»</text>
<polyline fill="none" stroke="black" points="2273.3,-184.1 2568.7,-184.1 "/>
<text text-anchor="start" x="2281.3" y="-167.5" font-family="Times,serif" font-size="14.00">+module.exports : module.exports = req, res, next</text>
<text text-anchor="start" x="2281.3" y="-150.7" font-family="Times,serif" font-size="14.00">&#45;jwt : variable = jsonwebtoken</text>
</g>
<!-- 31 -->
<g id="node9" class="node"><title>31</title>
<polygon fill="lightblue" stroke="black" points="2097.36,-125.7 2097.36,-225.7 2266.64,-225.7 2266.64,-125.7 2097.36,-125.7"/>
<text text-anchor="middle" x="2182" y="-209.1" font-family="Times,serif" font-size="14.00">«FUNCTION»</text>
<text text-anchor="middle" x="2182" y="-192.3" font-family="Times,serif" font-size="14.00"> function</text>
<polyline fill="none" stroke="black" points="2097.36,-184.1 2266.64,-184.1 "/>
<text text-anchor="start" x="2105.36" y="-167.5" font-family="Times,serif" font-size="14.00">&#45;decoded : variable = token</text>
<text text-anchor="start" x="2105.36" y="-150.7" font-family="Times,serif" font-size="14.00">&#45;token : variable = token</text>
<text text-anchor="start" x="2105.36" y="-133.9" font-family="Times,serif" font-size="14.00">publicreq.user : object</text>
</g>
<!-- 32 -->
<g id="node10" class="node"><title>32</title>
<polygon fill="khaki" stroke="black" points="2105.51,-75.1 2105.51,-116.7 2238.49,-116.7 2238.49,-75.1 2105.51,-75.1"/>
<text text-anchor="middle" x="2172" y="-100.1" font-family="Times,serif" font-size="14.00">«BLOCK»</text>
<text text-anchor="middle" x="2172" y="-83.3" font-family="Times,serif" font-size="14.00"> VariableDeclaration</text>
</g>
<!-- 31&#45;&gt;32 -->
<g id="edge25" class="edge"><title>31&#45;&gt;32</title>
<path fill="none" stroke="black" d="M2174.58,-116.989C2174.57,-116.903 2174.56,-116.817 2174.55,-116.73"/>
<polygon fill="black" stroke="black" points="2174.14,-113.526 2178.87,-118.967 2175.67,-125.428 2170.93,-119.987 2174.14,-113.526"/>
</g>
<!-- 33 -->
<g id="node11" class="node"><title>33</title>
<polygon fill="khaki" stroke="black" points="2245.62,-75.1 2245.62,-116.7 2332.38,-116.7 2332.38,-75.1 2245.62,-75.1"/>
<text text-anchor="middle" x="2289" y="-100.1" font-family="Times,serif" font-size="14.00">«CATCH»</text>
<text text-anchor="middle" x="2289" y="-83.3" font-family="Times,serif" font-size="14.00"> catch</text>
</g>
<!-- 31&#45;&gt;33 -->
<g id="edge26" class="edge"><title>31&#45;&gt;33</title>
<path fill="none" stroke="black" d="M2259.33,-118.472C2260.06,-117.94 2260.79,-117.413 2261.5,-116.893"/>
<polygon fill="black" stroke="black" points="2259.17,-118.592 2256.67,-125.356 2249.46,-125.649 2251.96,-118.885 2259.17,-118.592"/>
</g>
<!-- 34 -->
<g id="node12" class="node"><title>34</title>
<polygon fill="khaki" stroke="black" points="2236.48,-16.5 2236.48,-58.1 2341.52,-58.1 2341.52,-16.5 2236.48,-16.5"/>
<text text-anchor="middle" x="2289" y="-41.5" font-family="Times,serif" font-size="14.00">«BLOCK»</text>
<text text-anchor="middle" x="2289" y="-24.7" font-family="Times,serif" font-size="14.00"> CallExpression</text>
</g>
<!-- 33&#45;&gt;34 -->
<g id="edge27" class="edge"><title>33&#45;&gt;34</title>
<path fill="none" stroke="black" d="M2289,-62.6754C2289,-61.2139 2289,-59.7666 2289,-58.3496"/>
<polygon fill="black" stroke="black" points="2289,-62.7856 2293,-68.7856 2289,-74.7856 2285,-68.7856 2289,-62.7856"/>
</g>
<!-- 3&#45;&gt;2 -->
<g id="edge7" class="edge"><title>3&#45;&gt;2</title>
<path fill="none" stroke="black" d="M2080.67,-338.887C2135.66,-326.104 2202.09,-307.478 2259.81,-282.3"/>
<polygon fill="black" stroke="black" points="2261.29,-285.47 2269,-278.2 2258.44,-279.077 2261.29,-285.47"/>
</g>
<!-- 4 -->
<g id="node35" class="node"><title>4</title>
<polygon fill="lightyellow" stroke="black" points="3072.51,-138.5 3072.51,-212.9 3293.49,-212.9 3293.49,-138.5 3072.51,-138.5"/>
<text text-anchor="middle" x="3183" y="-196.3" font-family="Times,serif" font-size="14.00">«GLOBAL»</text>
<polyline fill="none" stroke="black" points="3072.51,-188.1 3293.49,-188.1 "/>
<text text-anchor="start" x="3080.51" y="-171.5" font-family="Times,serif" font-size="14.00">&#45;mongoose : variable = mongoose</text>
<polyline fill="none" stroke="black" points="3072.51,-163.3 3293.49,-163.3 "/>
<text text-anchor="start" x="3080.51" y="-146.7" font-family="Times,serif" font-size="14.00">+module.exports(user, UserSchema)</text>
</g>
<!-- 3&#45;&gt;4 -->
<g id="edge6" class="edge"><title>3&#45;&gt;4</title>
<path fill="none" stroke="black" d="M2080.73,-360.812C2323.14,-359.248 2882.8,-347.94 3058,-278.2 3063.9,-275.851 3069.74,-273.12 3075.48,-270.093"/>
<polygon fill="black" stroke="black" points="3077.39,-273.036 3084.41,-265.104 3073.97,-266.924 3077.39,-273.036"/>
</g>
<!-- 10 -->
<g id="node14" class="node"><title>10</title>
<polygon fill="lightblue" stroke="black" points="1646.12,-286.7 1646.12,-437.1 1853.88,-437.1 1853.88,-286.7 1646.12,-286.7"/>
<text text-anchor="middle" x="1750" y="-420.5" font-family="Times,serif" font-size="14.00">«FUNCTION»</text>
<text text-anchor="middle" x="1750" y="-403.7" font-family="Times,serif" font-size="14.00"> function</text>
<polyline fill="none" stroke="black" points="1646.12,-395.5 1853.88,-395.5 "/>
<text text-anchor="start" x="1654.12" y="-378.9" font-family="Times,serif" font-size="14.00">&#45;errors : variable = req</text>
<text text-anchor="start" x="1654.12" y="-362.1" font-family="Times,serif" font-size="14.00">&#45;payload : object</text>
<text text-anchor="start" x="1654.12" y="-345.3" font-family="Times,serif" font-size="14.00">&#45;salt : variable = await</text>
<text text-anchor="start" x="1654.12" y="-328.5" font-family="Times,serif" font-size="14.00">&#45;user : variable = await</text>
<text text-anchor="start" x="1654.12" y="-311.7" font-family="Times,serif" font-size="14.00">&#45;user.password : identifier = await</text>
<text text-anchor="start" x="1654.12" y="-294.9" font-family="Times,serif" font-size="14.00">&#45;user</text>
</g>
<!-- 11 -->
<g id="node15" class="node"><title>11</title>
<polygon fill="khaki" stroke="black" points="1726.2,-154.9 1726.2,-196.5 1839.8,-196.5 1839.8,-154.9 1726.2,-154.9"/>
<text text-anchor="middle" x="1783" y="-179.9" font-family="Times,serif" font-size="14.00">«BLOCK»</text>
<text text-anchor="middle" x="1783" y="-163.1" font-family="Times,serif" font-size="14.00"> ReturnStatement</text>
</g>
<!-- 10&#45;&gt;11 -->
<g id="edge8" class="edge"><title>10&#45;&gt;11</title>
<path fill="none" stroke="black" d="M1765.46,-274.58C1770.67,-245.539 1776.01,-215.728 1779.41,-196.759"/>
<polygon fill="black" stroke="black" points="1765.44,-274.698 1768.32,-281.309 1763.33,-286.51 1760.45,-279.898 1765.44,-274.698"/>
</g>
<!-- 12 -->
<g id="node16" class="node"><title>12</title>
<polygon fill="khaki" stroke="black" points="1846.51,-154.9 1846.51,-196.5 1979.49,-196.5 1979.49,-154.9 1846.51,-154.9"/>
<text text-anchor="middle" x="1913" y="-179.9" font-family="Times,serif" font-size="14.00">«BLOCK»</text>
<text text-anchor="middle" x="1913" y="-163.1" font-family="Times,serif" font-size="14.00"> VariableDeclaration</text>
</g>
<!-- 10&#45;&gt;12 -->
<g id="edge9" class="edge"><title>10&#45;&gt;12</title>
<path fill="none" stroke="black" d="M1843.51,-277.192C1870,-246.051 1889.33,-216.147 1901.15,-196.803"/>
<polygon fill="black" stroke="black" points="1843.34,-277.391 1842.42,-284.542 1835.46,-286.442 1836.39,-279.29 1843.34,-277.391"/>
</g>
<!-- 15 -->
<g id="node19" class="node"><title>15</title>
<polygon fill="khaki" stroke="black" points="1986.62,-154.9 1986.62,-196.5 2073.38,-196.5 2073.38,-154.9 1986.62,-154.9"/>
<text text-anchor="middle" x="2030" y="-179.9" font-family="Times,serif" font-size="14.00">«CATCH»</text>
<text text-anchor="middle" x="2030" y="-163.1" font-family="Times,serif" font-size="14.00"> catch</text>
</g>
<!-- 10&#45;&gt;15 -->
<g id="edge12" class="edge"><title>10&#45;&gt;15</title>
<path fill="none" stroke="black" d="M1865.99,-284.991C1900.78,-280.465 1962.64,-292.147 1983,-278.2 2010.4,-259.436 2022.16,-220.452 2026.96,-196.633"/>
<polygon fill="black" stroke="black" points="1865.85,-285.022 1860.85,-290.22 1854.13,-287.606 1859.13,-282.408 1865.85,-285.022"/>
</g>
<!-- 13 -->
<g id="node17" class="node"><title>13</title>
<polygon fill="khaki" stroke="black" points="1729.2,-75.1 1729.2,-116.7 1842.8,-116.7 1842.8,-75.1 1729.2,-75.1"/>
<text text-anchor="middle" x="1786" y="-100.1" font-family="Times,serif" font-size="14.00">«BLOCK»</text>
<text text-anchor="middle" x="1786" y="-83.3" font-family="Times,serif" font-size="14.00"> ReturnStatement</text>
</g>
<!-- 12&#45;&gt;13 -->
<g id="edge10" class="edge"><title>12&#45;&gt;13</title>
<path fill="none" stroke="black" d="M1876.9,-147.571C1866.21,-139.981 1854.33,-131.964 1843,-125.2 1838.16,-122.312 1832.99,-119.451 1827.81,-116.722"/>
<polygon fill="black" stroke="black" points="1876.99,-147.639 1884.2,-147.907 1886.72,-154.662 1879.52,-154.394 1876.99,-147.639"/>
</g>
<!-- 14 -->
<g id="node18" class="node"><title>14</title>
<polygon fill="lightblue" stroke="black" points="1849.96,-75.1 1849.96,-116.7 1960.04,-116.7 1960.04,-75.1 1849.96,-75.1"/>
<text text-anchor="middle" x="1905" y="-100.1" font-family="Times,serif" font-size="14.00">«FUNCTION»</text>
<text text-anchor="middle" x="1905" y="-83.3" font-family="Times,serif" font-size="14.00"> function</text>
</g>
<!-- 12&#45;&gt;14 -->
<g id="edge11" class="edge"><title>12&#45;&gt;14</title>
<path fill="none" stroke="black" d="M1909.69,-142.483C1908.79,-133.803 1907.85,-124.664 1907.05,-116.868"/>
<polygon fill="black" stroke="black" points="1909.71,-142.728 1914.31,-148.287 1910.94,-154.665 1906.35,-149.105 1909.71,-142.728"/>
</g>
<!-- 16 -->
<g id="node20" class="node"><title>16</title>
<polygon fill="khaki" stroke="black" points="1967.48,-75.1 1967.48,-116.7 2072.52,-116.7 2072.52,-75.1 1967.48,-75.1"/>
<text text-anchor="middle" x="2020" y="-100.1" font-family="Times,serif" font-size="14.00">«BLOCK»</text>
<text text-anchor="middle" x="2020" y="-83.3" font-family="Times,serif" font-size="14.00"> CallExpression</text>
</g>
<!-- 15&#45;&gt;16 -->
<g id="edge13" class="edge"><title>15&#45;&gt;16</title>
<path fill="none" stroke="black" d="M2025.86,-142.483C2024.74,-133.803 2023.57,-124.664 2022.57,-116.868"/>
<polygon fill="black" stroke="black" points="2025.89,-142.762 2030.63,-148.204 2027.42,-154.665 2022.69,-149.223 2025.89,-142.762"/>
</g>
<!-- 17 -->
<g id="node21" class="node"><title>17</title>
<polygon fill="lightblue" stroke="black" points="1472.53,-303.5 1472.53,-420.3 1639.47,-420.3 1639.47,-303.5 1472.53,-303.5"/>
<text text-anchor="middle" x="1556" y="-403.7" font-family="Times,serif" font-size="14.00">«FUNCTION»</text>
<text text-anchor="middle" x="1556" y="-386.9" font-family="Times,serif" font-size="14.00"> function</text>
<polyline fill="none" stroke="black" points="1472.53,-378.7 1639.47,-378.7 "/>
<text text-anchor="start" x="1480.53" y="-362.1" font-family="Times,serif" font-size="14.00">&#45;errors : variable = req</text>
<text text-anchor="start" x="1480.53" y="-345.3" font-family="Times,serif" font-size="14.00">&#45;isMatch : variable = await</text>
<text text-anchor="start" x="1480.53" y="-328.5" font-family="Times,serif" font-size="14.00">&#45;payload : object</text>
<text text-anchor="start" x="1480.53" y="-311.7" font-family="Times,serif" font-size="14.00">&#45;user : variable = await</text>
</g>
<!-- 18 -->
<g id="node22" class="node"><title>18</title>
<polygon fill="khaki" stroke="black" points="1372.2,-154.9 1372.2,-196.5 1485.8,-196.5 1485.8,-154.9 1372.2,-154.9"/>
<text text-anchor="middle" x="1429" y="-179.9" font-family="Times,serif" font-size="14.00">«BLOCK»</text>
<text text-anchor="middle" x="1429" y="-163.1" font-family="Times,serif" font-size="14.00"> ReturnStatement</text>
</g>
<!-- 17&#45;&gt;18 -->
<g id="edge14" class="edge"><title>17&#45;&gt;18</title>
<path fill="none" stroke="black" d="M1501.06,-293.537C1497.24,-288.405 1493.51,-283.256 1490,-278.2 1470.99,-250.851 1451.61,-217.47 1439.95,-196.643"/>
<polygon fill="black" stroke="black" points="1501.25,-293.788 1508.06,-296.157 1508.49,-303.355 1501.68,-300.986 1501.25,-293.788"/>
</g>
<!-- 19 -->
<g id="node23" class="node"><title>19</title>
<polygon fill="khaki" stroke="black" points="1492.51,-154.9 1492.51,-196.5 1625.49,-196.5 1625.49,-154.9 1492.51,-154.9"/>
<text text-anchor="middle" x="1559" y="-179.9" font-family="Times,serif" font-size="14.00">«BLOCK»</text>
<text text-anchor="middle" x="1559" y="-163.1" font-family="Times,serif" font-size="14.00"> VariableDeclaration</text>
</g>
<!-- 17&#45;&gt;19 -->
<g id="edge15" class="edge"><title>17&#45;&gt;19</title>
<path fill="none" stroke="black" d="M1557.14,-291.196C1557.68,-257.515 1558.3,-219.581 1558.67,-196.937"/>
<polygon fill="black" stroke="black" points="1557.13,-291.377 1561.03,-297.442 1556.94,-303.376 1553.04,-297.311 1557.13,-291.377"/>
</g>
<!-- 21 -->
<g id="node25" class="node"><title>21</title>
<polygon fill="khaki" stroke="black" points="1632.62,-154.9 1632.62,-196.5 1719.38,-196.5 1719.38,-154.9 1632.62,-154.9"/>
<text text-anchor="middle" x="1676" y="-179.9" font-family="Times,serif" font-size="14.00">«CATCH»</text>
<text text-anchor="middle" x="1676" y="-163.1" font-family="Times,serif" font-size="14.00"> catch</text>
</g>
<!-- 17&#45;&gt;21 -->
<g id="edge17" class="edge"><title>17&#45;&gt;21</title>
<path fill="none" stroke="black" d="M1618.06,-293.681C1621.93,-288.568 1625.62,-283.379 1629,-278.2 1646.3,-251.696 1660.63,-217.794 1668.75,-196.66"/>
<polygon fill="black" stroke="black" points="1617.85,-293.956 1617.29,-301.145 1610.44,-303.399 1611,-296.209 1617.85,-293.956"/>
</g>
<!-- 20 -->
<g id="node24" class="node"><title>20</title>
<polygon fill="lightblue" stroke="black" points="1499.96,-75.1 1499.96,-116.7 1610.04,-116.7 1610.04,-75.1 1499.96,-75.1"/>
<text text-anchor="middle" x="1555" y="-100.1" font-family="Times,serif" font-size="14.00">«FUNCTION»</text>
<text text-anchor="middle" x="1555" y="-83.3" font-family="Times,serif" font-size="14.00"> function</text>
</g>
<!-- 19&#45;&gt;20 -->
<g id="edge16" class="edge"><title>19&#45;&gt;20</title>
<path fill="none" stroke="black" d="M1557.34,-142.483C1556.9,-133.803 1556.43,-124.664 1556.03,-116.868"/>
<polygon fill="black" stroke="black" points="1557.35,-142.68 1561.66,-148.467 1557.97,-154.665 1553.67,-148.878 1557.35,-142.68"/>
</g>
<!-- 22 -->
<g id="node26" class="node"><title>22</title>
<polygon fill="khaki" stroke="black" points="1617.48,-75.1 1617.48,-116.7 1722.52,-116.7 1722.52,-75.1 1617.48,-75.1"/>
<text text-anchor="middle" x="1670" y="-100.1" font-family="Times,serif" font-size="14.00">«BLOCK»</text>
<text text-anchor="middle" x="1670" y="-83.3" font-family="Times,serif" font-size="14.00"> CallExpression</text>
</g>
<!-- 21&#45;&gt;22 -->
<g id="edge18" class="edge"><title>21&#45;&gt;22</title>
<path fill="none" stroke="black" d="M1673.52,-142.483C1672.85,-133.803 1672.14,-124.664 1671.54,-116.868"/>
<polygon fill="black" stroke="black" points="1673.53,-142.7 1677.98,-148.375 1674.45,-154.665 1670.01,-148.99 1673.53,-142.7"/>
</g>
<!-- 23 -->
<g id="node27" class="node"><title>23</title>
<polygon fill="lightblue" stroke="black" points="1227.42,-328.7 1227.42,-395.1 1372.58,-395.1 1372.58,-328.7 1227.42,-328.7"/>
<text text-anchor="middle" x="1300" y="-378.5" font-family="Times,serif" font-size="14.00">«FUNCTION»</text>
<text text-anchor="middle" x="1300" y="-361.7" font-family="Times,serif" font-size="14.00"> function</text>
<polyline fill="none" stroke="black" points="1227.42,-353.5 1372.58,-353.5 "/>
<text text-anchor="start" x="1235.42" y="-336.9" font-family="Times,serif" font-size="14.00">&#45;user : variable = await</text>
</g>
<!-- 24 -->
<g id="node28" class="node"><title>24</title>
<polygon fill="khaki" stroke="black" points="1138.51,-154.9 1138.51,-196.5 1271.49,-196.5 1271.49,-154.9 1138.51,-154.9"/>
<text text-anchor="middle" x="1205" y="-179.9" font-family="Times,serif" font-size="14.00">«BLOCK»</text>
<text text-anchor="middle" x="1205" y="-163.1" font-family="Times,serif" font-size="14.00"> VariableDeclaration</text>
</g>
<!-- 23&#45;&gt;24 -->
<g id="edge19" class="edge"><title>23&#45;&gt;24</title>
<path fill="none" stroke="black" d="M1277.66,-317.582C1257.96,-279.392 1230.15,-225.47 1215.3,-196.671"/>
<polygon fill="black" stroke="black" points="1277.73,-317.728 1284.04,-321.227 1283.23,-328.393 1276.93,-324.894 1277.73,-317.728"/>
</g>
<!-- 25 -->
<g id="node29" class="node"><title>25</title>
<polygon fill="khaki" stroke="black" points="1278.62,-154.9 1278.62,-196.5 1365.38,-196.5 1365.38,-154.9 1278.62,-154.9"/>
<text text-anchor="middle" x="1322" y="-179.9" font-family="Times,serif" font-size="14.00">«CATCH»</text>
<text text-anchor="middle" x="1322" y="-163.1" font-family="Times,serif" font-size="14.00"> catch</text>
</g>
<!-- 23&#45;&gt;25 -->
<g id="edge20" class="edge"><title>23&#45;&gt;25</title>
<path fill="none" stroke="black" d="M1305.35,-316.099C1309.9,-278.007 1316.22,-225.099 1319.61,-196.671"/>
<polygon fill="black" stroke="black" points="1305.31,-316.477 1308.57,-322.909 1303.88,-328.393 1300.62,-321.961 1305.31,-316.477"/>
</g>
<!-- 26 -->
<g id="node30" class="node"><title>26</title>
<polygon fill="khaki" stroke="black" points="1269.48,-75.1 1269.48,-116.7 1374.52,-116.7 1374.52,-75.1 1269.48,-75.1"/>
<text text-anchor="middle" x="1322" y="-100.1" font-family="Times,serif" font-size="14.00">«BLOCK»</text>
<text text-anchor="middle" x="1322" y="-83.3" font-family="Times,serif" font-size="14.00"> CallExpression</text>
</g>
<!-- 25&#45;&gt;26 -->
<g id="edge21" class="edge"><title>25&#45;&gt;26</title>
<path fill="none" stroke="black" d="M1322,-142.483C1322,-133.803 1322,-124.664 1322,-116.868"/>
<polygon fill="black" stroke="black" points="1322,-142.665 1326,-148.665 1322,-154.665 1318,-148.665 1322,-142.665"/>
</g>
<!-- 27 -->
<g id="node31" class="node"><title>27</title>
<polygon fill="lightblue" stroke="black" points="941.437,-320.3 941.437,-403.5 1162.56,-403.5 1162.56,-320.3 941.437,-320.3"/>
<text text-anchor="middle" x="1052" y="-386.9" font-family="Times,serif" font-size="14.00">«FUNCTION»</text>
<text text-anchor="middle" x="1052" y="-370.1" font-family="Times,serif" font-size="14.00"> function</text>
<polyline fill="none" stroke="black" points="941.437,-361.9 1162.56,-361.9 "/>
<text text-anchor="start" x="949.437" y="-345.3" font-family="Times,serif" font-size="14.00">+module.exports : identifier = router</text>
<text text-anchor="start" x="949.437" y="-328.5" font-family="Times,serif" font-size="14.00">&#45;user : variable = await</text>
</g>
<!-- 28 -->
<g id="node32" class="node"><title>28</title>
<polygon fill="khaki" stroke="black" points="904.505,-154.9 904.505,-196.5 1037.49,-196.5 1037.49,-154.9 904.505,-154.9"/>
<text text-anchor="middle" x="971" y="-179.9" font-family="Times,serif" font-size="14.00">«BLOCK»</text>
<text text-anchor="middle" x="971" y="-163.1" font-family="Times,serif" font-size="14.00"> VariableDeclaration</text>
</g>
<!-- 27&#45;&gt;28 -->
<g id="edge22" class="edge"><title>27&#45;&gt;28</title>
<path fill="none" stroke="black" d="M1029.09,-308.807C1012.66,-271.429 991.421,-223.14 979.714,-196.516"/>
<polygon fill="black" stroke="black" points="1029.19,-309.035 1035.27,-312.917 1034.02,-320.02 1027.95,-316.138 1029.19,-309.035"/>
</g>
<!-- 29 -->
<g id="node33" class="node"><title>29</title>
<polygon fill="khaki" stroke="black" points="1044.62,-154.9 1044.62,-196.5 1131.38,-196.5 1131.38,-154.9 1044.62,-154.9"/>
<text text-anchor="middle" x="1088" y="-179.9" font-family="Times,serif" font-size="14.00">«CATCH»</text>
<text text-anchor="middle" x="1088" y="-163.1" font-family="Times,serif" font-size="14.00"> catch</text>
</g>
<!-- 27&#45;&gt;29 -->
<g id="edge23" class="edge"><title>27&#45;&gt;29</title>
<path fill="none" stroke="black" d="M1062.37,-307.837C1069.65,-270.598 1078.97,-222.91 1084.13,-196.516"/>
<polygon fill="black" stroke="black" points="1062.29,-308.243 1065.07,-314.899 1059.99,-320.02 1057.21,-313.364 1062.29,-308.243"/>
</g>
<!-- 30 -->
<g id="node34" class="node"><title>30</title>
<polygon fill="khaki" stroke="black" points="1035.48,-75.1 1035.48,-116.7 1140.52,-116.7 1140.52,-75.1 1035.48,-75.1"/>
<text text-anchor="middle" x="1088" y="-100.1" font-family="Times,serif" font-size="14.00">«BLOCK»</text>
<text text-anchor="middle" x="1088" y="-83.3" font-family="Times,serif" font-size="14.00"> CallExpression</text>
</g>
<!-- 29&#45;&gt;30 -->
<g id="edge24" class="edge"><title>29&#45;&gt;30</title>
<path fill="none" stroke="black" d="M1088,-142.483C1088,-133.803 1088,-124.664 1088,-116.868"/>
<polygon fill="black" stroke="black" points="1088,-142.665 1092,-148.665 1088,-154.665 1084,-148.665 1088,-142.665"/>
</g>
</g>
</svg>
